<?xml version="1.0" standalone="no"?>
<!DOCTYPE svg PUBLIC "-//W3C//DTD SVG 20010904//EN"
 "http://www.w3.org/TR/2001/REC-SVG-20010904/DTD/svg10.dtd">
<svg version="1.0" xmlns="http://www.w3.org/2000/svg"
 width="1024.000000pt" height="1024.000000pt" viewBox="0 0 1024.000000 1024.000000"
 preserveAspectRatio="xMidYMid meet">
<metadata>
Created by potrace 1.14, written by Peter Selinger 2001-2017
</metadata>
<g transform="translate(0.000000,1024.000000) scale(0.100000,-0.100000)"
fill="#000000" stroke="none">
<path d="M4858 10236 c-1 -2 -50 -6 -108 -10 -58 -3 -116 -8 -130 -11 -14 -2
-52 -7 -85 -10 -119 -11 -315 -41 -445 -70 -41 -9 -86 -18 -100 -21 -87 -17
-351 -91 -493 -138 -535 -179 -1000 -425 -1462 -772 -82 -62 -166 -127 -185
-144 -19 -17 -57 -50 -84 -73 -484 -412 -934 -992 -1229 -1582 -94 -190 -190
-417 -257 -610 -69 -202 -140 -458 -174 -635 -2 -14 -9 -47 -15 -75 -6 -27
-13 -66 -16 -85 -12 -77 -34 -238 -40 -285 -3 -27 -8 -64 -10 -81 -26 -189
-26 -857 0 -1015 2 -13 6 -49 9 -79 8 -79 15 -129 37 -265 29 -174 30 -178 33
-184 2 -3 7 -23 10 -44 3 -22 20 -94 37 -160 17 -67 32 -129 34 -137 8 -34 66
-221 94 -300 144 -414 332 -793 576 -1160 86 -130 286 -401 328 -445 7 -7 37
-41 67 -76 284 -330 644 -649 1010 -896 367 -247 823 -473 1219 -603 206 -68
328 -103 400 -117 14 -2 28 -6 31 -8 4 -2 51 -13 106 -25 139 -28 136 -28 264
-50 116 -20 150 -24 250 -35 30 -4 71 -8 90 -10 229 -27 837 -26 1002 0 12 2
54 6 91 10 37 3 76 8 85 10 9 1 40 6 67 9 85 12 258 44 382 72 65 14 124 27
133 29 37 7 304 88 395 119 737 253 1401 666 1953 1215 132 132 281 295 344
376 12 17 28 36 35 43 26 27 212 279 270 367 143 214 332 557 425 771 110 252
242 630 273 781 2 10 15 65 29 123 27 112 52 234 61 297 4 21 10 63 15 93 12
71 19 125 35 275 27 251 27 850 1 1005 -3 14 -8 54 -11 90 -12 122 -15 144
-20 160 -2 8 -7 38 -11 65 -3 28 -8 59 -10 70 -2 11 -11 58 -20 105 -9 47 -17
92 -19 100 -24 123 -94 368 -162 570 -215 638 -585 1267 -1043 1770 -168 184
-390 399 -523 503 -15 12 -39 32 -52 44 -36 32 -280 213 -350 260 -420 280
-805 470 -1262 623 -156 52 -483 140 -568 153 -16 3 -41 8 -55 11 -46 11 -82
17 -215 37 -142 21 -176 26 -275 35 -41 4 -93 9 -115 11 -49 4 -642 13 -647 9z
m592 -730 c19 -3 70 -8 114 -11 43 -4 86 -8 96 -10 9 -2 41 -6 71 -10 78 -9
200 -31 309 -55 52 -11 104 -23 115 -25 62 -14 236 -63 340 -98 476 -157 899
-381 1305 -691 58 -44 107 -83 110 -86 3 -3 21 -18 40 -34 162 -131 425 -398
555 -561 22 -27 45 -54 51 -60 23 -20 136 -177 222 -307 236 -354 398 -689
527 -1088 69 -216 140 -512 160 -675 4 -27 8 -57 10 -65 2 -8 7 -46 11 -85 3
-38 7 -72 9 -75 2 -3 7 -54 11 -115 14 -200 8 -662 -10 -775 -3 -14 -7 -52
-11 -85 -7 -69 -14 -119 -20 -155 -3 -14 -7 -43 -11 -65 -3 -22 -7 -47 -9 -55
-2 -8 -7 -31 -10 -50 -3 -19 -11 -55 -16 -80 -6 -25 -12 -52 -14 -60 -60 -290
-218 -721 -370 -1015 -118 -226 -290 -499 -403 -640 -4 -5 -32 -41 -61 -80
-126 -165 -375 -428 -551 -580 -30 -26 -66 -57 -80 -69 -14 -12 -57 -46 -95
-76 -39 -30 -75 -59 -81 -65 -6 -5 -20 -16 -30 -23 -11 -7 -41 -28 -69 -48
-308 -220 -667 -409 -1030 -542 -106 -39 -294 -101 -325 -107 -8 -2 -61 -15
-118 -30 -56 -14 -115 -28 -130 -31 -15 -3 -34 -7 -42 -9 -8 -2 -31 -7 -50
-10 -19 -3 -48 -8 -65 -12 -35 -7 -54 -10 -110 -18 -22 -3 -49 -7 -60 -9 -11
-3 -45 -7 -75 -11 -30 -3 -71 -7 -90 -10 -212 -25 -722 -25 -895 0 -16 2 -50
6 -75 9 -66 7 -192 25 -215 30 -11 2 -60 11 -110 20 -114 22 -373 87 -490 125
-437 141 -835 341 -1215 609 -445 316 -840 728 -1144 1197 -56 86 -68 106
-117 193 -12 20 -25 42 -29 47 -20 26 -146 281 -196 398 -83 195 -112 274
-178 487 -49 159 -114 448 -132 585 -2 22 -7 50 -9 61 -3 12 -7 50 -11 85 -3
35 -7 75 -10 89 -23 143 -23 819 1 893 2 7 6 41 10 77 7 79 10 101 41 265 33
177 30 165 60 279 14 55 27 106 28 111 26 114 138 425 216 600 53 120 178 359
248 475 344 571 788 1035 1350 1409 81 54 154 101 162 104 8 4 22 11 30 17 58
39 427 230 445 230 2 0 28 11 57 24 97 43 369 144 436 162 294 76 403 103 432
108 19 3 60 10 90 16 30 6 75 13 100 16 25 3 52 7 60 9 8 3 40 7 70 10 30 3
69 8 85 10 17 2 84 7 150 11 66 3 121 7 123 9 4 4 475 -4 512 -9z"/>
<path d="M2810 8489 c0 -4 157 -220 270 -369 44 -59 599 -807 690 -930 54 -74
215 -291 357 -481 142 -191 266 -357 276 -370 57 -78 506 -683 908 -1224 274
-369 642 -864 839 -1130 57 -77 189 -255 293 -395 105 -140 237 -318 294 -395
57 -77 112 -151 123 -165 22 -30 484 -652 623 -840 245 -329 328 -440 330
-440 1 0 2 1515 2 3367 0 2646 -2 3369 -12 3373 -10 4 -979 5 -1095 1 l-28 -1
1 -1566 c0 -861 -2 -1568 -4 -1570 -4 -4 -241 303 -616 797 -52 68 -97 126
-100 129 -4 3 -26 32 -51 65 -24 33 -50 66 -56 75 -16 19 -253 328 -400 520
-190 249 -784 1023 -812 1059 -15 19 -60 78 -100 130 -40 53 -85 111 -100 130
-15 19 -61 80 -103 135 l-77 101 -726 0 c-399 0 -726 -2 -726 -6z"/>
<path d="M2425 5122 c0 -1852 3 -3369 6 -3372 6 -4 949 -5 1091 -1 l37 1 0
1566 c0 862 2 1568 4 1570 2 2 41 -46 88 -107 46 -61 102 -134 125 -162 53
-68 612 -797 695 -907 35 -47 66 -87 69 -90 4 -3 57 -72 120 -155 186 -244
319 -418 344 -450 13 -16 207 -268 430 -560 224 -291 412 -537 419 -545 7 -8
36 -48 66 -87 30 -40 57 -74 60 -74 3 -1 333 -2 733 -3 l726 -1 -18 26 c-23
31 -326 440 -337 454 -5 6 -105 141 -223 300 -118 160 -282 381 -365 492 -82
110 -211 284 -286 385 -351 472 -561 756 -671 903 -66 88 -126 169 -134 180
-8 11 -78 106 -157 211 -135 183 -249 336 -703 948 -360 485 -513 691 -521
701 -4 6 -23 30 -41 55 -149 202 -207 279 -225 304 -66 87 -462 621 -547 736
-116 157 -406 548 -423 570 -7 8 -88 117 -180 242 -93 126 -172 230 -175 232
-4 2 -7 -1511 -7 -3362z"/>
</g>
</svg>
